<svg width="960" height="960" viewBox="0 0 960 960" fill="none" xmlns="http://www.w3.org/2000/svg">
<path fill-rule="evenodd" clip-rule="evenodd" d="M478.812 314.357C485.349 314.375 491.904 314.411 498.442 314.448L499.76 313.185V312.507C518.676 315.052 538.343 314.924 556.16 308.167C585.129 297.18 605.436 269.841 615.489 240.524C623.327 217.671 625.817 193.5 627.099 169.292L627.319 169.31C637.019 158.836 649.183 153.526 663.429 152.72C677.676 151.896 691.94 155.687 704.758 161.967L705.18 162.004C702.165 192.614 695.828 222.804 686.28 252.042C675.201 285.919 659.527 318.842 635.78 345.413C612.634 371.269 581.211 390.752 546.858 395.166L546.932 395.752C554.29 452.697 558.58 509.995 559.785 567.4L559.822 568.536C558.462 568.584 557.107 568.637 555.752 568.69L555.743 568.69C554.528 568.738 553.314 568.785 552.095 568.829C528.29 569.745 504.49 570.654 480.695 571.557V571.4C492.835 485.885 476.886 399.161 460.955 314.269H461.797C464.019 314.281 466.237 314.292 468.455 314.302L468.472 314.302L468.48 314.302C471.923 314.319 475.364 314.335 478.812 314.357ZM525.587 361.002C527.095 360.836 528.452 361.924 528.618 363.432C535.111 422.389 539.632 481.476 542.181 540.692C542.246 542.208 541.07 543.489 539.555 543.554C538.039 543.619 536.758 542.444 536.693 540.928C534.149 481.835 529.638 422.87 523.158 364.033C522.992 362.525 524.079 361.168 525.587 361.002ZM679.734 169.608C679.594 168.098 678.256 166.987 676.745 167.128C675.235 167.268 674.125 168.606 674.265 170.117C680.847 240.903 648.308 314.14 591.366 356.7C590.151 357.609 589.903 359.33 590.811 360.545C591.719 361.76 593.44 362.008 594.655 361.1C653.128 317.395 686.493 242.298 679.734 169.608Z" fill="url(#paint0_linear_36_2582)"/>
<path d="M628.931 149.442C628.931 147.41 630.341 145.652 631.731 144.15C634.228 141.449 636.907 138.922 639.751 136.588C648.321 129.593 658.392 124.502 669.288 123.088C674.738 122.397 680.27 122.719 685.603 124.04C694.43 126.219 702.487 131.127 707.614 138.54L706.827 139.126C706.497 146.762 705.947 154.386 705.179 161.997L704.757 161.96C691.939 155.68 677.675 151.889 663.428 152.713C649.182 153.519 637.028 158.829 627.318 169.303L627.098 169.285C627.446 162.656 627.698 156.009 627.959 149.399L628.931 149.442Z" fill="url(#paint1_linear_36_2582)"/>
<path d="M499.761 312.507V313.185L498.443 314.448C491.905 314.412 485.35 314.375 478.813 314.357C478.721 307.893 478.63 301.392 478.538 294.91L492.858 294.525C495.058 294.452 497.637 294.58 498.9 296.393C499.557 297.581 499.838 298.941 499.706 300.293C499.724 304.358 499.742 308.429 499.761 312.507Z" fill="url(#paint2_linear_36_2582)"/>
<path d="M478.538 294.91C478.63 301.392 478.721 307.893 478.813 314.357C473.136 314.32 467.478 314.302 461.801 314.265V313.807C461.82 307.893 461.82 301.96 461.82 296.045L461.801 295.367L472.147 295.093C474.271 295.019 476.4 294.965 478.538 294.91Z" fill="url(#paint3_linear_36_2582)"/>
<path d="M461.8 313.807V314.265H460.958C456.307 314.247 451.658 314.21 447.004 314.192V313.807C446.876 308.094 446.73 302.399 446.583 296.686L446.565 295.786C451.637 295.639 456.71 295.511 461.8 295.364L461.819 296.042C461.82 301.96 461.82 307.893 461.8 313.807Z" fill="url(#paint4_linear_36_2582)"/>
<path d="M418.915 154.954C418.784 154.746 418.699 154.513 418.668 154.269C418.636 154.026 418.658 153.778 418.732 153.544C420.932 141.971 425.599 129.944 435.506 123.568C438.638 121.565 442.146 120.226 445.815 119.631C448.313 119.08 450.92 119.33 453.268 120.345C456.18 121.829 457.901 125.07 458.304 128.329C458.533 131.61 458.103 134.903 457.04 138.016L457.571 138.272C460.961 131.414 466.258 125.679 472.825 121.755C479.74 117.679 487.975 116.47 495.769 118.386C497.298 118.734 498.73 119.417 499.963 120.386C503.24 123.279 502.673 128.443 501.83 132.728L502.013 132.874C502.123 132.71 502.252 132.563 502.38 132.398C506.225 127.765 511.829 124.231 517.835 124.36C523.841 124.489 529.847 129.212 530.067 135.2C530.177 138.313 528.822 141.3 527.247 143.99C524.326 148.99 520.594 153.47 516.205 157.247L516.461 158.273C521.369 157.082 526.569 156.167 531.404 157.573C536.439 159.038 540.889 163.78 540.266 168.981C539.442 175.994 530.891 179.016 523.823 179.29C515.894 179.602 508.023 178.411 500.164 177.001C495.664 176.177 491.173 175.301 486.664 174.601C478.521 173.32 470.297 172.622 462.054 172.513C450.389 172.33 437.278 174.033 430.063 183.189C423.691 191.264 423.929 202.562 424.478 212.835C425.302 228.235 423.288 243.251 424.112 258.651C420.812 264.162 418.712 268.612 412.576 270.551C409.442 271.686 406.033 271.826 402.816 270.951C401.222 270.486 399.781 269.602 398.644 268.391C397.507 267.18 396.716 265.686 396.352 264.066C395.729 260.239 398.165 256.705 401.296 254.233L398.934 253.647C397.299 255.062 395.443 256.2 393.44 257.016C390.73 258.023 387.434 257.968 385.218 256.137C381.977 253.482 382.218 248.519 383.112 244.437C384.784 236.836 387.692 229.561 391.719 222.902C390.127 224.503 388.244 225.783 386.17 226.675C382.636 228.084 378.004 227.553 375.806 224.44C374.506 222.573 374.286 220.174 374.323 217.903C374.461 212.488 375.807 207.173 378.263 202.345C380.719 197.517 384.223 193.299 388.518 190C386.701 190.465 384.825 190.651 382.952 190.55C380.058 190.35 377.074 188.957 375.752 186.375C375.013 184.629 374.687 182.737 374.8 180.845C374.687 177.924 375.02 175.003 375.789 172.183C378.371 163.983 386.689 159.2 394.389 155.41C398.289 153.469 402.318 151.564 406.658 151.088C410.998 150.594 415.758 151.802 418.524 155.153L418.915 154.954Z" fill="#171717"/>
<path d="M447.005 313.807V314.192C440.139 314.155 433.253 314.118 426.387 314.1V297.327L426.368 296.356C433.089 296.156 439.823 295.967 446.568 295.789L446.586 296.689C446.731 302.4 446.877 308.094 447.005 313.807Z" fill="url(#paint5_linear_36_2582)"/>
<path d="M424.207 296.411C424.922 296.393 425.654 296.356 426.368 296.356L426.387 297.327V314.1C420.673 314.064 414.978 314.045 409.265 314.009L408.954 314.082H408.936C408.844 313.661 408.771 313.221 408.679 312.8C408.158 309.815 407.828 306.799 407.69 303.772C407.599 301.41 407.855 298.627 409.869 297.4C410.947 296.864 412.148 296.622 413.349 296.7C416.974 296.613 420.582 296.5 424.207 296.411Z" fill="url(#paint6_linear_36_2582)"/>
<path d="M229.94 524.775C227.431 525.086 224.959 525.507 222.487 526.057C225.032 498.205 233.602 471.214 244.333 445.394C258.799 410.694 277.77 377.074 305.457 351.621C333.144 326.168 370.536 309.6 408 312.947L408.677 312.8C408.769 313.221 408.842 313.661 408.934 314.082H408.952L409.263 314.009C414.976 314.045 420.671 314.064 426.385 314.1C433.251 314.119 440.137 314.155 447.003 314.192C451.655 314.21 456.303 314.247 460.957 314.265C476.888 399.158 492.837 485.881 480.697 571.396V571.561C441.657 573.045 402.61 574.541 363.558 576.048L360.481 576.158C350.465 576.542 340.357 576.927 330.469 575.169C350.136 532.807 365.06 488.4 374.969 442.758C376.701 435.321 377.943 427.779 378.686 420.179H378.576C353.251 428.145 331.808 446.365 317.376 468.632C303.056 490.732 295.31 516.645 292.234 542.794C291.746 543.046 291.246 543.272 290.734 543.471C286.648 538.991 281.8 535.271 276.415 532.484C270.936 529.615 265.097 527.49 259.055 526.167C249.503 524.031 239.653 523.56 229.94 524.775V524.775Z" fill="url(#paint7_linear_36_2582)"/>
<path d="M408.555 314.613C407.674 310.683 407.846 308.636 407.676 304.613C407.576 302.254 407.828 299.462 409.848 298.241C410.929 297.713 412.127 297.472 413.329 297.541L492.829 295.36C495.029 295.3 497.616 295.419 498.877 297.226C499.533 298.415 499.816 299.774 499.69 301.126C499.709 305.423 499.727 309.721 499.743 314.019" stroke="#171717" stroke-width="4" stroke-linecap="round" stroke-linejoin="round"/>
<path d="M409.243 314.847L498.43 315.281" stroke="#171717" stroke-width="4" stroke-linecap="round" stroke-linejoin="round"/>
<path d="M426.368 314.327V298.169" stroke="#171717" stroke-width="4" stroke-linecap="round" stroke-linejoin="round"/>
<path d="M446.994 314.642C446.853 308.936 446.712 303.231 446.57 297.526" stroke="#171717" stroke-width="4" stroke-linecap="round" stroke-linejoin="round"/>
<path d="M461.79 314.65C461.796 308.726 461.801 302.801 461.805 296.876" stroke="#171717" stroke-width="4" stroke-linecap="round" stroke-linejoin="round"/>
<path d="M478.785 315.294C478.699 308.724 478.613 302.154 478.527 295.585" stroke="#171717" stroke-width="4" stroke-linecap="round" stroke-linejoin="round"/>
<path d="M498.448 314.441C518.065 317.296 538.604 317.448 557.14 310.42C586.117 299.434 606.424 272.079 616.479 242.766C626.534 213.453 627.799 181.966 628.969 150.997" stroke="#171717" stroke-width="4" stroke-linecap="round" stroke-linejoin="round"/>
<path d="M538.673 397.337C576.589 393.891 611.991 372.811 635.752 346.246C659.513 319.681 675.186 286.759 686.261 252.883C698.196 216.349 705.108 178.362 706.807 139.966" stroke="#171717" stroke-width="4" stroke-linecap="round" stroke-linejoin="round"/>
<path d="M628.186 149.7C628.096 147.607 628.886 146.425 630.308 144.889C640.268 134.148 653.346 125.719 667.872 123.833C682.398 121.947 698.299 127.522 706.477 139.676" stroke="#171717" stroke-width="4" stroke-linecap="round" stroke-linejoin="round"/>
<path d="M628.724 169.735C638.431 159.272 649.164 154.37 663.412 153.551C677.66 152.732 691.921 156.522 704.739 162.799" stroke="#171717" stroke-width="4" stroke-linecap="round" stroke-linejoin="round"/>
<path d="M407.974 313.785C370.516 310.431 333.133 327.014 305.446 352.467C277.759 377.92 258.786 411.525 244.324 446.242C233.357 472.567 224.351 498.568 222.011 526.991" stroke="#171717" stroke-width="4" stroke-linecap="round" stroke-linejoin="round"/>
<path d="M222.011 526.991C234.201 524.272 246.842 524.276 259.031 527.005C271.531 529.814 283.683 535.755 291.851 545.621" stroke="#171717" stroke-width="4" stroke-linecap="round" stroke-linejoin="round"/>
<path d="M292.141 544.271C295.168 517.899 302.93 491.759 317.361 469.48C331.792 447.201 353.23 428.987 378.551 421.016" stroke="#171717" stroke-width="4" stroke-linecap="round" stroke-linejoin="round"/>
<path d="M377.659 399.989C380.679 414.351 378.068 429.251 374.959 443.594C365.052 489.241 350.124 533.652 330.449 576.016" stroke="#171717" stroke-width="4" stroke-linecap="round" stroke-linejoin="round"/>
<path d="M330.139 575.945C340.113 577.76 350.339 577.379 360.47 576.992C427.405 574.434 492.96 571.38 559.895 568.822" stroke="#171717" stroke-width="4" stroke-linecap="round" stroke-linejoin="round"/>
<path d="M559.763 568.245C558.56 510.837 554.268 453.535 546.906 396.588" stroke="#171717" stroke-width="4" stroke-linecap="round" stroke-linejoin="round"/>
<path d="M460.842 314.67C476.811 399.701 492.836 486.57 480.679 572.231" stroke="#171717" stroke-width="4" stroke-linecap="round" stroke-linejoin="round"/>
<path d="M363.44 575.93C368.494 621.099 363.666 670.77 333.666 704.915C304.917 737.638 256.847 749.559 214.221 740.599" stroke="#171717" stroke-width="4" stroke-linecap="round" stroke-linejoin="round"/>
<path d="M215.752 740.266C199.717 742.538 185.952 754.1 178.329 768.391C170.706 782.682 168.629 799.385 169.482 815.559C170.222 829.628 173.657 844.633 184.21 853.966" stroke="#171717" stroke-width="4" stroke-linecap="round" stroke-linejoin="round"/>
<path d="M183.346 853.572C234.287 880.727 298.777 874.345 349.302 846.425C399.827 818.505 437.652 771.584 464.828 720.654C473.977 703.511 482.138 685.582 485.767 666.492" stroke="#171717" stroke-width="4" stroke-linecap="round" stroke-linejoin="round"/>
<path d="M485.692 667.2C558.355 731.788 625.887 801.925 687.68 876.978" stroke="#171717" stroke-width="4" stroke-linecap="round" stroke-linejoin="round"/>
<path d="M552.075 569.765C632.535 644.61 711.098 721.427 787.764 800.214" stroke="#171717" stroke-width="4" stroke-linecap="round" stroke-linejoin="round"/>
<path d="M686.708 876.2C696.724 882.6 709.996 879.619 720.877 874.834C747.961 862.802 769.815 841.429 782.446 814.619C784.746 809.693 786.733 804.527 787.209 799.112" stroke="#171717" stroke-width="4" stroke-linecap="round" stroke-linejoin="round"/>
<path d="M183.872 760.52L141.753 752.227" stroke="#171717" stroke-width="4" stroke-linecap="round" stroke-linejoin="round"/>
<path d="M141.5 751.443C122.45 781.053 103.993 811.033 86.1275 841.383C79.7495 852.219 73.2275 864.065 74.5195 876.572C76.1735 892.54 92.5585 905.411 108.464 903.234C118.71 901.834 127.43 895.334 135.646 889.058L182.216 853.474" stroke="#171717" stroke-width="4" stroke-linecap="round" stroke-linejoin="round"/>
<path d="M723.992 873.569C729.508 883.827 735.023 894.084 740.537 904.341C743.375 909.622 746.475 915.176 751.694 918.128C757.206 921.247 763.959 920.828 770.262 920.212C792.216 918.053 814.007 914.484 835.502 909.525C844.202 907.525 853.149 905.136 860.047 899.476C865.547 894.96 869.313 888.698 872.625 882.395C876.852 874.354 880.527 866.035 883.625 857.495C885.696 851.788 887.506 845.45 885.391 839.757C883.391 834.366 878.267 830.768 873.052 828.342C845.601 815.578 811.463 826.675 784.126 813.668" stroke="#171717" stroke-width="4" stroke-linecap="round" stroke-linejoin="round"/>
<path d="M159.836 868.086C158.687 853.419 152.002 839.738 141.136 829.819" stroke="#171717" stroke-width="4" stroke-linecap="round" stroke-linejoin="round"/>
<path d="M146.073 879.284C144.748 865.706 139.099 852.912 129.959 842.784" stroke="#171717" stroke-width="4" stroke-linecap="round" stroke-linejoin="round"/>
<path d="M132.808 890.47C132.289 878.949 128.014 867.916 120.636 859.053" stroke="#171717" stroke-width="4" stroke-linecap="round" stroke-linejoin="round"/>
<path d="M842.858 822.1C837.032 826.852 832.3 832.805 828.985 839.553C825.67 846.301 823.85 853.685 823.649 861.2" stroke="#171717" stroke-width="4" stroke-linecap="round" stroke-linejoin="round"/>
<path d="M822.572 821.914C814.184 825.376 807.972 832.884 804.23 841.15C800.488 849.416 798.917 858.478 797.506 867.442C797.436 867.879 797.406 868.414 797.766 868.672C798.126 868.93 798.716 868.288 798.317 868.097" stroke="#171717" stroke-width="4" stroke-linecap="round" stroke-linejoin="round"/>
<path d="M803.457 819.685C797.101 820.868 792.629 826.517 789.306 832.064C785.807 837.904 782.892 844.075 780.606 850.487C780.034 852.093 779.644 854.215 781.019 855.221" stroke="#171717" stroke-width="4" stroke-linecap="round" stroke-linejoin="round"/>
<path d="M472.09 294.611C471.865 285.999 471.64 277.388 471.413 268.777" stroke="#171717" stroke-width="4" stroke-linecap="round" stroke-linejoin="round"/>
<path d="M470.018 268.607C478.241 266.602 487.218 264.095 491.966 257.091C495.077 252.506 495.797 246.756 496.366 241.242C498.531 220.284 499.772 199.257 500.089 178.162" stroke="#171717" stroke-width="4" stroke-linecap="round" stroke-linejoin="round"/>
<path d="M458.355 235.877C460.763 235.803 463.172 235.729 465.581 235.655C466.073 235.773 466.589 235.75 467.068 235.588C467.547 235.426 467.971 235.132 468.291 234.74C468.61 234.347 468.813 233.873 468.874 233.371C468.936 232.868 468.855 232.359 468.639 231.901C466.646 217.682 464.654 203.463 462.664 189.244" stroke="#171717" stroke-width="4" stroke-linecap="round" stroke-linejoin="round"/>
<path d="M462.68 188.4C471.732 188.089 479.856 188.354 488.91 188.043" stroke="#171717" stroke-width="4" stroke-linecap="round" stroke-linejoin="round"/>
<path d="M449.818 202.326C449.227 199.473 446.092 197.578 443.195 197.889C441.751 198.117 440.387 198.704 439.228 199.595C438.069 200.486 437.152 201.652 436.56 202.989" stroke="#171717" stroke-width="4" stroke-linecap="round" stroke-linejoin="round"/>
<path d="M471.854 202.139C472.623 201.073 473.671 200.24 474.884 199.731C476.096 199.223 477.426 199.06 478.725 199.259C480.025 199.458 481.244 200.012 482.249 200.86C483.254 201.708 484.005 202.816 484.42 204.064" stroke="#171717" stroke-width="4" stroke-linecap="round" stroke-linejoin="round"/>
<path d="M449.282 256.693C445.548 256.059 442.153 254.141 439.683 251.271C437.213 248.4 435.822 244.758 435.751 240.971" stroke="#171717" stroke-width="4" stroke-linecap="round" stroke-linejoin="round"/>
<path d="M424.127 295.259C423.052 285.62 423.561 268.338 424.12 258.659" stroke="#171717" stroke-width="4" stroke-linecap="round" stroke-linejoin="round"/>
<path d="M403.3 253.687C399.293 256.1 395.6 260.293 396.35 264.91C396.883 268.178 399.65 270.79 402.807 271.793C406.026 272.666 409.436 272.529 412.575 271.399C418.694 269.457 420.82 264.161 424.124 258.656" stroke="#171717" stroke-width="4" stroke-linecap="round" stroke-linejoin="round"/>
<path d="M423.957 258.008C423.133 242.601 425.293 229.076 424.468 213.668C423.918 203.396 423.668 192.11 430.043 184.035C437.269 174.879 450.371 173.178 462.034 173.348C470.275 173.469 478.497 174.167 486.641 175.437C499.005 177.366 511.307 180.62 523.81 180.137C530.865 179.86 539.415 176.837 540.25 169.823C540.871 164.623 536.421 159.877 531.389 158.414C526.357 156.951 520.968 157.987 515.889 159.254" stroke="#171717" stroke-width="4" stroke-linecap="round" stroke-linejoin="round"/>
<path d="M516.177 158.074C520.578 154.307 524.314 149.827 527.23 144.821C528.796 142.129 530.149 139.155 530.039 136.042C529.827 130.042 523.817 125.326 517.811 125.192C511.805 125.058 506.198 128.607 502.361 133.231C502.078 133.572 501.803 133.92 501.526 134.268" stroke="#171717" stroke-width="4" stroke-linecap="round" stroke-linejoin="round"/>
<path d="M501.8 133.568C502.644 129.283 503.212 124.114 499.934 121.228C498.709 120.251 497.276 119.569 495.746 119.234C487.951 117.312 479.714 118.52 472.8 122.6C465.949 126.709 460.478 132.767 457.086 140L458.359 138.857" stroke="#171717" stroke-width="4" stroke-linecap="round" stroke-linejoin="round"/>
<path d="M457.027 138.849C458.094 135.74 458.52 132.448 458.282 129.17C457.882 125.917 456.17 122.67 453.25 121.184C450.906 120.17 448.302 119.918 445.806 120.464C442.132 121.061 438.62 122.406 435.487 124.416C425.581 130.785 420.908 142.816 418.712 154.385C418.602 154.96 418.593 155.721 419.137 155.939C419.681 156.157 419.807 154.879 419.316 155.198" stroke="#171717" stroke-width="4" stroke-linecap="round" stroke-linejoin="round"/>
<path d="M418.518 156C415.746 152.633 410.983 151.439 406.649 151.921C402.315 152.403 398.282 154.312 394.371 156.24C386.661 160.04 378.35 164.821 375.771 173.021C375.002 175.841 374.671 178.763 374.79 181.684C374.668 183.575 374.991 185.468 375.733 187.211C377.057 189.791 380.033 191.184 382.924 191.399C385.829 191.445 388.72 190.997 391.475 190.073" stroke="#171717" stroke-width="4" stroke-linecap="round" stroke-linejoin="round"/>
<path d="M390.456 189.453C385.614 192.686 381.62 197.036 378.81 202.134C376 207.233 374.456 212.933 374.308 218.753C374.272 221.022 374.495 223.419 375.797 225.278C377.985 228.402 382.615 228.933 386.156 227.515C389.697 226.097 392.4 223.203 394.982 220.396" stroke="#171717" stroke-width="4" stroke-linecap="round" stroke-linejoin="round"/>
<path d="M394.312 219.774C388.92 227.448 385.109 236.118 383.1 245.28C382.208 249.363 381.968 254.331 385.2 256.988C387.429 258.821 390.714 258.878 393.419 257.873C396.066 256.708 398.489 255.092 400.582 253.097" stroke="#171717" stroke-width="4" stroke-linecap="round" stroke-linejoin="round"/>
<path d="M282.1 546.577C286.227 547.492 288.7 547.729 292.44 545.769" stroke="#171717" stroke-width="4" stroke-linecap="round" stroke-linejoin="round"/>
<path d="M168.083 811.194C154.883 819.176 141.422 827.378 131.557 839.238C126.06 846.091 121.529 853.666 118.091 861.752C115.415 867.76 113.091 874.089 112.969 880.664C112.847 887.239 115.245 894.155 120.502 898.106" stroke="#171717" stroke-width="4" stroke-linecap="round" stroke-linejoin="round"/>
<path d="M764.644 844.728C771.311 848.557 776.436 854.515 782.197 859.608C787.958 864.701 795.019 869.159 802.703 868.863C806.035 868.581 809.314 867.85 812.452 866.691L826.742 862.124C835.414 859.352 844.372 856.424 851.135 850.324C857.898 844.224 861.864 834.03 858.02 825.775" stroke="#171717" stroke-width="4" stroke-linecap="round" stroke-linejoin="round"/>
<path d="M740.145 902.162C756.572 901.672 773.045 902.762 789.438 901.635C805.83 900.508 822.477 896.98 836.301 888.09C856.246 875.263 868.04 852.719 874.301 829.844" stroke="#171717" stroke-width="4" stroke-linecap="round" stroke-linejoin="round"/>
<path d="M159.486 756.448C140.674 773.293 127.027 795.06 114.593 817.037C107.01 830.437 99.673 844.343 97.031 859.516C94.389 874.689 97.115 891.545 107.611 902.816" stroke="#171717" stroke-width="4" stroke-linecap="round" stroke-linejoin="round"/>
<path d="M224.446 510.571C228.257 508.371 232.877 508.227 237.275 508.298C247.492 508.465 257.788 509.514 267.49 512.719C277.192 515.924 286.318 521.402 292.747 529.344" stroke="#171717" stroke-width="4" stroke-linecap="round" stroke-linejoin="round"/>
<path d="M336.87 562.411C376.211 558.673 414.27 556.875 453.762 555.511C462.616 555.203 471.475 554.956 480.334 554.985C506.034 555.073 532.034 557.477 557.239 552.485" stroke="#171717" stroke-width="4" stroke-linecap="round" stroke-linejoin="round"/>
<path d="M569.336 257.9L552.628 233.276" stroke="#171717" stroke-width="4" stroke-linecap="round" stroke-linejoin="round"/>
<path d="M571.879 235.549C563.722 242.905 555.564 250.26 547.404 257.616" stroke="#171717" stroke-width="4" stroke-linecap="round" stroke-linejoin="round"/>
<path d="M291.778 242.029C283.386 236.296 275.212 230.26 267.255 223.921" stroke="#171717" stroke-width="4" stroke-linecap="round" stroke-linejoin="round"/>
<path d="M286.047 222.575C279.252 231.572 273.347 241.207 268.416 251.346" stroke="#171717" stroke-width="4" stroke-linecap="round" stroke-linejoin="round"/>
<path d="M644.351 530.336C653.42 523.105 661.684 514.917 669 505.914" stroke="#171717" stroke-width="4" stroke-linecap="round" stroke-linejoin="round"/>
<path d="M665.32 532.96C656.29 523.179 648.396 512.407 641.79 500.849" stroke="#171717" stroke-width="4" stroke-linecap="round" stroke-linejoin="round"/>
<path d="M510.082 71.655C514.837 62.9618 521.26 55.2912 528.982 49.082" stroke="#171717" stroke-width="4" stroke-linecap="round" stroke-linejoin="round"/>
<path d="M530.682 69.0999C525.015 59.5223 517.009 51.5397 507.415 45.8999" stroke="#171717" stroke-width="4" stroke-linecap="round" stroke-linejoin="round"/>
<path d="M518.122 40.6479C518.549 51.8159 518.975 62.9866 519.4 74.16C519.43 74.943 519.637 75.9409 520.409 76.0709C521.181 76.2009 520.982 74.493 520.431 75.05" stroke="#171717" stroke-width="4" stroke-linecap="round" stroke-linejoin="round"/>
<path d="M504.943 53.6289L535.088 57.1429C535.569 57.1999 536.053 57.2549 536.534 57.3109" stroke="#171717" stroke-width="4" stroke-linecap="round" stroke-linejoin="round"/>
<path d="M182.1 419.113C175.025 408.523 168.739 397.426 163.294 385.913" stroke="#171717" stroke-width="4" stroke-linecap="round" stroke-linejoin="round"/>
<path d="M153.053 416.391C163.289 409.335 173.71 402.558 184.318 396.059" stroke="#171717" stroke-width="4" stroke-linecap="round" stroke-linejoin="round"/>
<path d="M175.179 389.592C172.132 400.226 169.085 410.86 166.038 421.492L166.23 418.044" stroke="#171717" stroke-width="4" stroke-linecap="round" stroke-linejoin="round"/>
<path d="M180.154 408.465C172.202 405.283 164.059 402.6 155.772 400.43" stroke="#171717" stroke-width="4" stroke-linecap="round" stroke-linejoin="round"/>
<path d="M378.577 106.243C382.782 96.6946 385.764 86.6531 387.452 76.357C388.972 67.082 388.432 55.616 380.307 50.889C377.957 49.5209 375.234 48.9303 372.528 49.2016C369.822 49.4728 367.27 50.592 365.238 52.3994C363.206 54.2068 361.796 56.61 361.211 59.2659C360.626 61.9219 360.895 64.6949 361.979 67.189C357.647 62.012 352.801 56.724 346.315 54.851C339.829 52.978 331.445 56.151 330.172 62.778C329.027 68.74 333.772 74.094 338.311 78.123C350.285 88.7429 363.511 97.8605 377.696 105.273" fill="url(#paint8_linear_36_2582)"/>
<path d="M733.979 373.461L762.313 359.817C769.068 356.565 776.101 353.086 780.527 347.034C784.953 340.982 785.713 331.534 780.127 326.534C776.551 323.327 771.147 322.688 766.563 324.124C761.979 325.56 758.146 328.812 755.13 332.551C755.612 328.377 755.176 324.149 753.854 320.162C752.531 316.174 750.353 312.524 747.473 309.466C744.111 305.946 738.933 303.223 734.473 305.166C729.606 307.286 728.363 313.518 727.998 318.814C726.721 337.372 728.159 356.017 732.265 374.16" fill="url(#paint9_linear_36_2582)"/>
<path d="M238.691 131.4C207.739 142.722 189.457 175.871 184.6 208.469C183.253 217.521 182.784 227.096 186.389 235.507C189.994 243.918 198.689 250.733 207.763 249.517C216.837 248.301 223.606 236.735 218.385 229.217C212.613 220.911 199.674 223.74 190.779 228.551C185.472 231.42 180.288 234.758 176.439 239.402C162.372 256.379 171.359 282.154 183.346 300.658C194.836 318.395 208.704 334.802 217.146 354.177C225.588 373.552 227.704 397.415 215.798 414.877" stroke="url(#paint10_linear_36_2582)" stroke-width="4" stroke-linecap="round" stroke-linejoin="round"/>
<path d="M772.025 201.006C780.359 208.038 786.479 218.076 787.348 228.946C788.217 239.816 783.265 251.323 773.935 256.966C767.235 261.02 759.143 261.815 751.507 263.553C713.199 272.273 684.441 306.834 674.022 344.713C666.94 370.456 668.975 402.113 690.13 418.396C698.281 424.669 712.83 426.24 716.64 416.685C719.718 408.962 712.478 400.641 704.611 397.949C687.171 391.983 667.935 403.093 656.977 417.916C646.019 432.739 640.705 450.882 632.242 467.256C623.779 483.63 610.273 499.404 592.042 502.135" stroke="#171717" stroke-width="4" stroke-linecap="round" stroke-linejoin="round"/>
<path d="M130.149 579.219C125.893 589.129 123.448 599.723 122.931 610.497C122.059 628.845 127.571 648.38 141.46 660.397C155.349 672.414 178.482 674.231 191.59 661.364C196.45 656.594 199.731 649.439 197.7 642.939C194.961 634.169 182.861 630.721 174.934 635.365C167.007 640.009 163.727 650.45 165.666 659.43C167.605 668.41 173.875 675.95 181.2 681.5C199.9 695.658 226.776 698.063 247.689 687.447C264.164 679.084 277.389 663.357 295.656 660.586C301.343 659.773 307.141 660.291 312.593 662.1C318.045 663.909 323.002 666.959 327.074 671.011" stroke="#171717" stroke-width="4" stroke-linecap="round" stroke-linejoin="round"/>
<path d="M381.483 109.838C387.595 95.1382 393.827 79.7252 392.483 63.8632C392.075 59.0512 390.892 54.1472 387.983 50.2942C385.074 46.4412 380.148 43.8502 375.4 44.7332C370.551 45.6332 366.887 49.9082 365.282 54.5722C363.677 59.2362 363.766 64.2862 363.869 69.2172C362.732 63.0412 358.732 57.1282 352.812 55.0282C346.892 52.9282 339.289 55.6782 337.158 61.5852C335.295 66.7452 337.795 72.5032 341.205 76.8002C345.081 81.6862 350.105 85.5132 355.066 89.2872L380 108.239" stroke="#171717" stroke-width="4" stroke-linecap="round" stroke-linejoin="round"/>
<path d="M732.489 375.025C743.227 372.65 754.122 370.218 763.811 365.014C773.5 359.81 781.998 351.384 784.744 340.734C786.288 334.748 785.413 327.36 780.238 323.976C776.238 321.361 770.789 321.994 766.607 324.302C762.425 326.61 759.233 330.326 756.134 333.963C756.622 329.826 757.103 325.585 756.134 321.533C755.165 317.481 752.434 313.587 748.434 312.428C743.179 310.907 737.555 314.666 735.09 319.552C732.625 324.438 732.541 330.136 732.51 335.607C732.437 348.34 732.365 361.074 732.292 373.807C732.84 374.178 733.651 373.323 733.25 372.796" stroke="#171717" stroke-width="4" stroke-linecap="round" stroke-linejoin="round"/>
<path d="M277.6 534.552C279.771 539.979 281.942 545.406 284.113 550.832C287.813 560.091 291.59 569.776 290.734 579.712C290.592 581.376 290.202 583.224 288.815 584.158C287.197 585.249 284.943 584.568 283.397 583.376C280.59 581.211 279.189 577.736 277.911 574.431C276.263 570.169 274.614 565.907 272.965 561.647" stroke="#171717" stroke-width="4" stroke-linecap="round" stroke-linejoin="round"/>
<path d="M231.584 526.711C223.726 548.386 220.061 571.357 220.784 594.401C220.699 596.238 221.081 598.066 221.894 599.715C222.833 601.286 224.879 602.354 226.542 601.592C228.096 600.88 228.666 599.001 229.067 597.338C232.908 581.363 236.745 565.388 240.579 549.411" stroke="#171717" stroke-width="4" stroke-linecap="round" stroke-linejoin="round"/>
<path d="M239.868 550.3C238.149 569.395 238.672 588.626 241.427 607.6C241.505 608.813 241.887 609.988 242.538 611.015C242.878 611.516 243.387 611.879 243.972 612.038C244.557 612.197 245.18 612.141 245.728 611.881C246.3 611.439 246.722 610.831 246.935 610.14C248.865 605.392 249.484 600.228 250.084 595.14C251.66 581.784 253.236 568.427 254.812 555.071" stroke="#171717" stroke-width="4" stroke-linecap="round" stroke-linejoin="round"/>
<path d="M255.274 556.394C253.586 573.083 255.223 589.941 260.09 605.994C260.365 607.2 260.915 608.326 261.698 609.284C262.1 609.753 262.643 610.08 263.247 610.214C263.85 610.348 264.48 610.283 265.043 610.028C265.824 609.45 266.365 608.605 266.563 607.653C268.824 600.506 268.246 592.822 268.599 585.335C268.986 577.211 270.496 569.18 273.087 561.471" stroke="#171717" stroke-width="4" stroke-linecap="round" stroke-linejoin="round"/>
<path d="M635.547 138.811C635.205 139.085 634.703 138.849 634.335 138.611C623.335 131.47 611.759 123.662 606.514 111.642C605.28 108.815 604.637 105.042 606.977 103.035C608.724 101.535 611.383 101.774 613.535 102.594C616.373 103.848 619.004 105.527 621.335 107.575L635.115 118.49" stroke="#171717" stroke-width="4" stroke-linecap="round" stroke-linejoin="round"/>
<path d="M634.375 118.031C630.634 104.089 628.122 89.8458 626.866 75.4652C626.526 72.9622 626.587 70.4212 627.045 67.9372C627.284 66.6956 627.793 65.5216 628.536 64.4986C629.279 63.4755 630.238 62.6284 631.345 62.0172C631.764 61.7853 632.24 61.6775 632.718 61.7062C633.115 61.8082 633.488 61.9893 633.813 62.2389C634.139 62.4884 634.41 62.8011 634.612 63.1582C639.078 69.2672 641.231 76.7752 642.403 84.2492C643.575 91.7232 643.846 99.3202 645 106.8" stroke="#171717" stroke-width="4" stroke-linecap="round" stroke-linejoin="round"/>
<path d="M645.406 105.712C644.771 94.3134 645.645 82.8811 648.006 71.7118C649.024 66.8958 650.567 61.7568 654.543 58.8548C654.903 58.5421 655.355 58.3545 655.832 58.3198C656.804 58.3408 657.355 59.4198 657.658 60.3458C659.833 67.0018 660.388 74.0698 660.694 81.0668C661.04 88.9795 661.087 96.8968 660.837 104.819C660.798 106.011 660.637 107.406 659.613 108.019" stroke="#171717" stroke-width="4" stroke-linecap="round" stroke-linejoin="round"/>
<path d="M659.608 108.012C662.258 91.8122 668.079 76.2692 674.661 61.2302C675.074 60.0539 675.762 58.9929 676.666 58.1352C677.13 57.7198 677.72 57.4733 678.341 57.4357C678.963 57.3981 679.578 57.5717 680.088 57.9282C680.688 58.5829 681.05 59.4201 681.115 60.3052C683.071 71.1842 682.606 82.3322 682.135 93.3762C681.714 103.259 681.253 113.337 677.748 122.587" stroke="#171717" stroke-width="4" stroke-linecap="round" stroke-linejoin="round"/>
<path d="M196.27 882.734C222.523 894.895 252.135 897.752 280.229 890.834" stroke="#171717" stroke-width="4" stroke-linecap="round" stroke-linejoin="round"/>
<path d="M666.88 893.309C647.376 869.819 628.963 845.476 611.641 820.282" stroke="#171717" stroke-width="4" stroke-linecap="round" stroke-linejoin="round"/>
<path d="M357.846 196.849C349.196 181.526 355.433 159.679 370.868 151.23" stroke="#171717" stroke-width="4" stroke-linecap="round" stroke-linejoin="round"/>
<path d="M204.763 559.014C198.638 535.51 201.321 510.577 212.306 488.914" stroke="#171717" stroke-width="4" stroke-linecap="round" stroke-linejoin="round"/>
<path d="M182.262 543.264C180.641 538.284 180.157 533.004 180.845 527.812C181.534 522.62 183.378 517.649 186.241 513.264" stroke="#171717" stroke-width="4" stroke-linecap="round" stroke-linejoin="round"/>
<path fill-rule="evenodd" clip-rule="evenodd" d="M183.447 759.585C191.083 749.532 201.941 741.877 214.228 739.662L214.247 739.753C256.876 748.726 304.947 736.805 333.693 704.082C363.486 670.169 368.449 620.947 363.56 576.048C402.618 574.546 441.664 573.05 480.699 571.561C504.504 570.646 528.304 569.736 552.099 568.833V568.924C632.338 643.562 710.698 720.172 787.18 798.753C786.547 803.474 785.175 808.065 783.115 812.359C782.964 812.719 782.801 813.068 782.635 813.422L782.634 813.424C782.581 813.538 782.527 813.653 782.474 813.769C770.327 839.537 749.654 860.319 723.95 872.6C722.943 873.076 721.917 873.534 720.892 873.991C710.253 878.661 697.325 881.627 687.382 875.749C625.675 800.843 558.251 730.837 485.716 666.36L485.643 666.342C481.962 685.185 473.887 702.874 464.843 719.812C437.669 770.736 399.855 817.669 349.315 845.594C299.068 873.355 235.015 879.819 184.2 853.175L184.236 853.12L184.214 853.101L184.213 853.1C183.892 852.813 183.57 852.527 183.266 852.22C173.451 842.863 170.228 828.342 169.495 814.72C168.653 798.551 170.722 781.832 178.34 767.549C179.83 764.764 181.537 762.101 183.447 759.585ZM615.233 641.394C616.344 640.362 618.082 640.427 619.114 641.538C650.078 674.882 672.788 696.555 692.246 715.124L692.268 715.146L692.378 715.251L692.5 715.367C694.774 717.537 697.004 719.665 699.197 721.765C720.236 741.905 737.954 759.458 759.275 786.426C760.216 787.616 760.014 789.343 758.824 790.284C757.634 791.224 755.907 791.022 754.966 789.832C733.879 763.16 716.374 745.813 695.398 725.733C693.127 723.558 690.815 721.352 688.453 719.098L688.453 719.098L688.452 719.097C668.986 700.52 646.169 678.745 615.089 645.276C614.057 644.164 614.121 642.427 615.233 641.394ZM555.658 680.139C554.422 679.346 552.79 679.669 551.944 680.849C549.845 680.304 547.637 680.411 545.648 680.997C542.659 681.879 539.847 683.934 538.405 687.002C536.972 690.05 537.139 693.475 538.299 696.351C539.457 699.225 541.708 701.802 544.791 703.058C544.811 703.067 544.832 703.075 544.852 703.083C544.868 703.089 544.883 703.094 544.899 703.1C547.875 704.169 551.143 704.099 554.071 702.903C556.999 701.706 559.38 699.469 560.757 696.621C560.769 696.595 560.782 696.569 560.793 696.543C560.805 696.516 560.817 696.489 560.828 696.462C562.008 693.566 562.137 690.348 561.193 687.367C560.249 684.385 558.291 681.828 555.658 680.139ZM551.987 686.79C552.89 687.38 554.011 687.37 554.882 686.859C555.346 687.517 555.71 688.247 555.956 689.025C556.504 690.756 556.439 692.621 555.773 694.308C554.982 695.898 553.638 697.145 551.993 697.818C550.339 698.493 548.496 698.54 546.812 697.95C545.326 697.326 544.074 695.985 543.393 694.297C542.705 692.589 542.699 690.778 543.376 689.339C544.042 687.922 545.456 686.781 547.202 686.266C548.946 685.752 550.707 685.953 551.987 686.79ZM520.396 593.867C524.155 590.922 528.911 589.552 533.661 590.045C535.17 590.202 536.266 591.552 536.109 593.061C536.079 593.358 536.002 593.639 535.886 593.897C537.382 595.512 538.17 597.619 538.36 599.651C538.631 602.541 537.754 605.759 535.448 607.994C531.077 612.23 523.968 611.769 519.589 608.345C518.074 607.232 516.938 605.68 516.337 603.899C516.323 603.857 516.309 603.815 516.297 603.773C515.686 601.628 516.152 599.58 516.988 597.933C517.817 596.3 519.077 594.91 520.386 593.875L520.396 593.867ZM529.77 595.593C527.605 595.93 525.543 596.814 523.789 598.187C522.972 598.834 522.286 599.633 521.886 600.42C521.509 601.164 521.451 601.751 521.565 602.21C521.813 602.9 522.264 603.5 522.859 603.931L522.881 603.947L522.905 603.965C522.92 603.976 522.935 603.988 522.95 604C525.595 606.089 529.587 606.025 531.625 604.05C532.531 603.171 533.035 601.7 532.891 600.164C532.748 598.636 532.022 597.523 531.065 597.028C530.449 596.71 530.005 596.191 529.77 595.593ZM345.77 740.894C344.152 739.399 341.903 738.351 339.38 738.564C338.915 738.418 338.405 738.393 337.898 738.519C332.871 739.765 327.605 743.299 325.981 748.95C325.126 751.924 325.65 755.143 327.064 757.7C328.483 760.265 330.986 762.469 334.329 762.882C338.904 763.448 342.817 760.608 345.168 757.831C347.546 755.02 349.514 751.033 348.889 746.752C348.559 744.492 347.394 742.394 345.77 740.894ZM339.824 744.039C339.482 744.07 339.149 744.038 338.837 743.951C335.157 744.974 332.132 747.434 331.26 750.468C330.852 751.889 331.081 753.613 331.871 755.041C332.656 756.461 333.807 757.283 335.002 757.43L335.003 757.43C336.879 757.663 339.126 756.466 340.975 754.282C342.797 752.13 343.765 749.679 343.454 747.545C343.315 746.596 342.795 745.623 342.043 744.929C341.299 744.241 340.505 743.976 339.824 744.039ZM288.663 812.507C290.539 812.301 292.436 812.613 294.147 813.41C295.858 814.207 297.317 815.458 298.366 817.027C298.396 817.073 298.425 817.119 298.453 817.166C300.037 819.87 300.564 823.064 299.936 826.133C298.73 833.015 292.311 839.499 284.693 838.819C282.933 838.662 281.224 838.141 279.676 837.289C278.127 836.437 276.773 835.272 275.698 833.869C274.623 832.466 273.852 830.855 273.432 829.138C273.013 827.422 272.955 825.636 273.262 823.896C273.568 822.156 274.233 820.498 275.215 819.028C276.196 817.558 277.471 816.308 278.961 815.357C280.451 814.406 282.122 813.775 283.868 813.503C284.881 813.346 285.906 813.312 286.922 813.399C287.357 812.915 287.965 812.584 288.663 812.507ZM290.647 818.015C290.004 818.929 288.837 819.393 287.694 819.089C286.721 818.83 285.706 818.777 284.711 818.931C283.717 819.086 282.765 819.445 281.917 819.987C281.069 820.528 280.342 821.24 279.783 822.077C279.225 822.914 278.846 823.858 278.671 824.849C278.497 825.841 278.53 826.857 278.769 827.835C279.007 828.813 279.447 829.73 280.059 830.529C280.671 831.328 281.442 831.991 282.324 832.476C283.206 832.961 284.179 833.258 285.181 833.347L285.181 833.347C289.327 833.718 293.714 829.916 294.53 825.156C294.536 825.123 294.542 825.091 294.549 825.058C294.908 823.336 294.626 821.542 293.755 820.015C293.268 819.312 292.603 818.751 291.827 818.389C291.45 818.214 291.053 818.088 290.647 818.015ZM397.519 653.467C396.464 652.718 395.061 652.821 394.127 653.635C391.644 653.648 389.185 654.146 386.889 655.102C384.431 656.125 382.214 657.65 380.38 659.58C378.414 661.536 377.149 664.086 376.78 666.835C376.777 666.857 376.774 666.879 376.772 666.901C376.769 666.923 376.767 666.944 376.765 666.966C376.284 672.584 380.778 677.178 385.484 678.526L385.484 678.526C388.684 679.441 392.105 679.196 395.141 677.832C398.178 676.468 400.633 674.074 402.075 671.074C403.516 668.074 403.849 664.66 403.015 661.438C402.181 658.215 400.235 655.392 397.519 653.467ZM394.564 659.132C394.907 659.14 395.237 659.085 395.543 658.977C396.575 660.041 397.321 661.361 397.697 662.813C398.206 664.781 398.003 666.864 397.123 668.696C396.243 670.527 394.744 671.989 392.891 672.821C391.037 673.654 388.949 673.804 386.996 673.245C384.092 672.413 382.078 669.778 382.234 667.496C382.455 665.963 383.171 664.543 384.274 663.454C384.296 663.432 384.318 663.41 384.339 663.387C385.65 662.001 387.238 660.906 388.999 660.173C390.761 659.44 392.656 659.085 394.564 659.132ZM387.511 726.79C389.022 726.656 390.355 727.773 390.489 729.284L391.364 739.165C394.113 738.909 396.869 738.721 399.629 738.6C401.144 738.534 402.427 739.709 402.493 741.224C402.559 742.739 401.384 744.022 399.869 744.088C397.19 744.205 394.516 744.388 391.848 744.637L392.454 751.477L392.454 751.483C392.48 751.764 392.521 752.311 392.41 752.911C392.293 753.542 391.951 754.518 390.97 755.203C390.115 755.801 389.18 755.835 388.502 755.685C387.855 755.541 387.322 755.217 386.932 754.848C386.57 754.506 386.079 753.883 385.955 752.981C385.823 752.021 386.16 751.08 386.846 750.424L386.387 745.239C382.957 745.676 379.541 746.222 376.144 746.876C374.655 747.163 373.215 746.188 372.928 744.698C372.641 743.209 373.616 741.769 375.106 741.482C378.686 740.793 382.287 740.219 385.902 739.764L385.017 729.768C384.883 728.257 386 726.924 387.511 726.79ZM432.64 617.021C433.814 616.06 435.545 616.233 436.505 617.407L440.307 622.052L445.083 617.218C446.149 616.14 447.888 616.129 448.967 617.195C450.046 618.261 450.056 620 448.99 621.079L443.805 626.326L448.525 632.094C449.486 633.267 449.313 634.998 448.139 635.958C446.966 636.919 445.235 636.746 444.274 635.572L439.923 630.256L434.428 635.816C433.362 636.895 431.623 636.906 430.544 635.84C429.465 634.773 429.455 633.034 430.521 631.955L436.425 625.981L432.254 620.885C431.294 619.712 431.467 617.981 432.64 617.021ZM431.956 665.144C433.351 664.548 434.965 665.197 435.56 666.592C436.414 668.593 437.185 670.626 437.872 672.685L443.287 670.052C444.651 669.389 446.295 669.957 446.958 671.321C447.622 672.685 447.054 674.329 445.69 674.992L439.449 678.027C440.354 681.541 441.02 685.117 441.44 688.731C441.616 690.237 440.536 691.601 439.03 691.776C437.523 691.951 436.159 690.872 435.984 689.365C435.636 686.371 435.106 683.405 434.4 680.482L425.933 684.6C424.568 685.263 422.925 684.695 422.262 683.331C421.598 681.967 422.166 680.323 423.53 679.66L432.887 675.11C432.192 672.957 431.398 670.834 430.508 668.748C429.913 667.353 430.561 665.739 431.956 665.144ZM398.159 593.946C399.177 595.07 399.091 596.807 397.967 597.825C395.926 599.673 394.101 601.734 392.521 603.969C394.77 606.307 397.102 608.567 399.512 610.743C400.638 611.759 400.727 613.496 399.71 614.622C398.694 615.747 396.957 615.836 395.831 614.82C393.695 612.891 391.617 610.898 389.602 608.846C389.261 609.528 388.941 610.221 388.642 610.924C388.048 612.32 386.435 612.97 385.039 612.376C383.643 611.782 382.993 610.17 383.587 608.774C384.192 607.353 384.871 605.968 385.622 604.626C383.712 602.518 381.865 600.353 380.082 598.134C379.132 596.951 379.321 595.223 380.504 594.273C381.686 593.323 383.415 593.512 384.365 594.694C385.775 596.45 387.228 598.171 388.722 599.855C390.369 597.654 392.23 595.609 394.28 593.753C395.404 592.735 397.141 592.821 398.159 593.946ZM569.453 612.375C570.896 611.906 572.445 612.696 572.913 614.139C573.508 615.97 574.011 617.827 574.422 619.702L580.355 618.95C581.86 618.76 583.234 619.825 583.425 621.33C583.616 622.834 582.551 624.209 581.046 624.4L575.346 625.122C575.671 627.763 575.816 630.426 575.779 633.095C575.758 634.612 574.512 635.824 572.995 635.803C571.478 635.782 570.266 634.536 570.287 633.019C570.32 630.607 570.189 628.2 569.897 625.813L561.324 626.9C559.819 627.09 558.445 626.025 558.254 624.52C558.063 623.016 559.128 621.641 560.633 621.45L568.948 620.396C568.596 618.86 568.176 617.338 567.688 615.835C567.22 614.392 568.01 612.843 569.453 612.375ZM620.322 687.265C621.826 687.461 622.887 688.839 622.691 690.343C622.333 693.091 621.9 695.827 621.392 698.55C622.911 698.597 624.439 698.509 625.958 698.283C627.459 698.06 628.856 699.096 629.079 700.596C629.302 702.097 628.266 703.494 626.766 703.717C624.604 704.038 622.427 704.129 620.272 703.996C619.846 705.886 619.385 707.768 618.887 709.641C618.497 711.107 616.993 711.979 615.527 711.589C614.061 711.199 613.188 709.695 613.578 708.229C614.024 706.551 614.441 704.865 614.826 703.172C612.496 702.605 610.227 701.768 608.069 700.669C607.673 700.915 607.249 701.048 606.863 701.096C605.727 701.238 604.853 700.715 604.482 700.449C604.03 700.125 603.457 699.561 603.159 698.722C602.998 698.27 602.899 697.676 603.033 697.014C603.172 696.33 603.522 695.762 603.966 695.34C605.181 694.186 606.653 694.223 607.525 694.407C608.366 694.584 609.091 694.969 609.512 695.209C611.544 696.365 613.709 697.229 615.946 697.791C616.456 695.085 616.888 692.366 617.244 689.635C617.44 688.13 618.818 687.07 620.322 687.265ZM609.983 757.938C610.248 756.445 611.673 755.449 613.167 755.714C617.082 756.408 620.996 757.102 624.911 757.796C625.468 753.226 625.889 748.64 626.174 744.044C626.268 742.53 627.572 741.379 629.086 741.473C630.6 741.567 631.751 742.87 631.657 744.384C631.358 749.188 630.915 753.981 630.328 758.755C633.766 759.365 637.204 759.974 640.642 760.583C642.136 760.847 643.132 762.272 642.868 763.766C642.603 765.259 641.178 766.256 639.685 765.991C636.321 765.396 632.957 764.8 629.593 764.204C629.066 767.807 628.455 771.399 627.763 774.976C627.475 776.465 626.034 777.439 624.544 777.15C623.055 776.862 622.082 775.421 622.37 773.932C623.057 770.383 623.661 766.82 624.182 763.245C620.191 762.538 616.199 761.83 612.208 761.122C610.714 760.857 609.718 759.432 609.983 757.938ZM294.706 749.894C295.798 750.947 295.831 752.685 294.778 753.778C291.859 756.807 289.117 759.998 286.565 763.335C287.64 764.315 288.689 765.325 289.71 766.364L287.75 768.289L289.71 766.364C289.933 766.591 290.249 766.845 290.61 767.065C290.835 767.202 291.046 767.307 291.231 767.382C291.009 767.637 290.83 767.937 290.711 768.275C290.737 768.201 290.81 768.044 290.974 767.882C291.14 767.717 291.327 767.616 291.483 767.565C291.604 767.526 291.683 767.521 291.707 767.521L291.713 767.522C291.714 767.522 291.715 767.522 291.715 767.522C291.715 767.521 291.712 767.521 291.707 767.521C291.698 767.521 291.682 767.519 291.658 767.515C291.63 767.51 291.591 767.502 291.54 767.488C291.45 767.464 291.346 767.429 291.231 767.382C291.949 766.56 293.122 766.214 294.215 766.599C295.645 767.104 296.395 768.673 295.89 770.103C295.43 771.407 294.469 772.367 293.194 772.785C292.067 773.154 290.958 773.017 290.134 772.798C288.488 772.362 286.871 771.313 285.791 770.214L285.791 770.214C284.985 769.393 284.159 768.591 283.316 767.809C281.956 769.784 280.659 771.805 279.429 773.867C278.651 775.169 276.965 775.595 275.663 774.817C274.36 774.04 273.935 772.354 274.712 771.051C276.105 768.717 277.578 766.435 279.129 764.207C276.05 761.751 272.776 759.541 269.338 757.601C268.017 756.855 267.55 755.18 268.296 753.859C269.041 752.538 270.716 752.072 272.037 752.817C275.664 754.864 279.121 757.19 282.376 759.771C285.005 756.351 287.825 753.078 290.822 749.966C291.875 748.874 293.614 748.842 294.706 749.894ZM420.856 733.594C422.231 734.236 422.824 735.87 422.182 737.244C399.344 786.137 358.75 824.501 308.647 844.544C307.239 845.107 305.64 844.423 305.077 843.014C304.514 841.606 305.199 840.007 306.607 839.444C355.414 819.919 394.958 782.547 417.206 734.92C417.848 733.545 419.482 732.952 420.856 733.594ZM239.242 749.643C240.154 748.431 239.911 746.71 238.699 745.797C237.487 744.885 235.765 745.128 234.853 746.34C210.653 778.498 206.309 824.353 224.044 860.483C224.713 861.845 226.358 862.407 227.72 861.738C229.082 861.07 229.644 859.424 228.975 858.063C212.152 823.791 216.286 780.148 239.242 749.643ZM744.6 799.927C745.806 800.847 746.037 802.57 745.117 803.776C727.82 826.441 704.224 843.502 677.28 852.826C675.847 853.322 674.282 852.563 673.786 851.129C673.29 849.696 674.05 848.131 675.484 847.635C701.406 838.665 724.108 822.25 740.751 800.444C741.671 799.238 743.394 799.006 744.6 799.927ZM770.966 788.158C771.536 786.752 770.858 785.15 769.452 784.581C768.047 784.011 766.445 784.689 765.875 786.094C758.97 803.132 746.896 817.857 732.688 829.898C718.475 841.943 702.185 851.413 685.416 860.059C684.068 860.754 683.539 862.411 684.234 863.759C684.929 865.107 686.585 865.636 687.933 864.941C704.833 856.227 721.554 846.533 736.24 834.088C750.93 821.639 763.643 806.226 770.966 788.158ZM680.296 789.725C680.561 788.231 681.986 787.235 683.48 787.5C687.394 788.194 691.309 788.888 695.224 789.582C695.78 785.012 696.201 780.426 696.487 775.83C696.581 774.316 697.884 773.165 699.398 773.259C700.912 773.353 702.063 774.656 701.969 776.17C701.671 780.974 701.228 785.767 700.64 790.541C704.078 791.151 707.517 791.76 710.955 792.369C712.449 792.633 713.445 794.058 713.18 795.552C712.916 797.046 711.491 798.042 709.997 797.777C706.633 797.182 703.27 796.586 699.906 795.99C699.378 799.593 698.768 803.185 698.075 806.762C697.787 808.251 696.346 809.225 694.857 808.936C693.368 808.648 692.394 807.207 692.682 805.718C693.369 802.169 693.974 798.606 694.495 795.031C690.503 794.324 686.512 793.616 682.52 792.908C681.027 792.644 680.031 791.218 680.296 789.725Z" fill="#171717"/>
<path d="M437.6 340.524C438.859 341.332 440.326 341.756 441.823 341.743C443.319 341.731 444.779 341.283 446.024 340.454C451.413 336.838 448.391 327.924 442.037 327.99C435.5 328.055 431.849 336.585 437.6 340.524Z" stroke="#171717" stroke-width="4" stroke-linecap="round" stroke-linejoin="round"/>
<path d="M477.936 340.91C486.363 342.128 488.097 328.872 480.063 327.433C471.867 325.964 469.25 339.656 477.936 340.91Z" stroke="#171717" stroke-width="4" stroke-linecap="round" stroke-linejoin="round"/>
<path d="M443.61 333.258C430.331 341.998 424.475 360.489 430.3 375.279C435.769 389.165 449.719 398.742 453.775 413.104C456.39 422.36 454.475 432.228 452.369 441.613" stroke="#171717" stroke-width="4" stroke-linecap="round" stroke-linejoin="round"/>
<path d="M478.97 331.405C493.621 344.712 503.861 363.849 503.013 383.624C502.568 394.003 499.177 404.005 497.366 414.235C495.555 424.465 495.516 435.696 501.144 444.429" stroke="#171717" stroke-width="4" stroke-linecap="round" stroke-linejoin="round"/>
<path d="M455.187 450.351C455.491 448.763 455.417 447.125 454.971 445.57C454.737 444.797 454.296 444.102 453.696 443.562C453.096 443.021 452.359 442.655 451.565 442.503C449.765 442.287 448.124 443.53 446.853 444.83C444.953 446.779 443.365 449.009 442.147 451.443C439.999 455.743 439.716 465.013 446.974 464.35C452.68 463.83 454.59 454.722 455.187 450.351Z" stroke="#171717" stroke-width="4" stroke-linecap="round" stroke-linejoin="round"/>
<path d="M498.174 460.51C498.46 462.512 499.264 464.404 500.506 466C501.134 466.791 501.947 467.414 502.874 467.815C503.801 468.216 504.812 468.383 505.819 468.3C506.948 468.07 507.994 467.539 508.847 466.764C509.7 465.988 510.328 464.997 510.664 463.894C511.305 461.676 511.42 459.34 511 457.07C510.465 453.012 508.443 445.634 502.906 446.597C497.267 447.581 497.412 456.345 498.174 460.51Z" stroke="#171717" stroke-width="4" stroke-linecap="round" stroke-linejoin="round"/>
<path d="M509.776 780.225C544.5 810.178 598.144 813.769 638.706 792.375C679.268 770.981 706.019 727.375 711.227 681.817C712.965 666.624 712.545 651.076 716.565 636.317C725.472 603.617 757.933 578.923 791.818 579.06C807.451 579.123 823.556 584.378 834.264 595.77C844.972 607.162 849.097 625.184 841.955 639.091C838.108 646.584 831.455 652.345 824.122 656.486C815.398 661.41 804.393 664.186 795.462 659.644C785.876 654.772 781.825 641.377 787.107 632.008C792.389 622.639 805.946 619.17 815.078 624.85" stroke="url(#paint11_linear_36_2582)" stroke-width="4" stroke-linecap="round" stroke-linejoin="round"/>
<g opacity="0.1">
<path d="M517.301 330.622C548.716 341.478 583.073 323.38 604.785 301.411C616.614 289.443 627.131 275.199 633.907 259.753C641.287 242.941 644.752 225.063 646.102 206.813C646.857 196.613 646.935 186.367 646.741 176.141C646.641 170.991 646.474 165.841 646.282 160.695C646.067 154.943 646.494 149.034 643.57 143.875C640.835 139.052 632.431 138.375 629.889 143.875C626.246 151.758 628.289 161.636 628.542 170.133C628.792 178.405 628.909 186.684 628.689 194.958C628.258 211.172 626.463 227.339 621.38 242.81C612.342 270.319 590.649 296.31 564.605 309.21C557.864 312.614 550.667 315.026 543.237 316.373C535.33 317.755 527.137 317.173 519.17 316.81C510.893 316.429 510.115 328.138 517.301 330.621V330.622Z" fill="#171717"/>
</g>
<g opacity="0.1">
<path d="M380.76 395.432C377.623 402.581 378.467 410.88 378.088 418.547C377.739 425.617 376.874 432.614 376.222 439.657C374.871 453.823 372.51 467.875 369.156 481.706C365.893 495.253 361.733 508.569 356.705 521.566C354.313 527.766 351.716 533.875 348.914 539.893C345.792 546.627 341.404 553.303 339.095 560.32C337.565 564.971 340.488 570.289 344.849 572.043C349.797 574.034 354.181 572.043 357.259 567.977C361.427 562.467 364.072 554.797 366.912 548.489C370.004 541.622 372.898 534.67 375.596 527.634C380.774 514.099 385.007 500.222 388.265 486.102C391.62 471.386 393.875 456.44 395.012 441.39C395.478 433.784 395.562 426.16 395.263 418.547C395.084 411.047 395.619 402.163 391.85 395.432C389.684 391.564 382.737 390.932 380.76 395.432V395.432Z" fill="#171717"/>
</g>
<g opacity="0.1">
<path d="M435.688 293.073C438.423 286.304 437.488 278.067 437.343 270.906C437.198 263.745 437.086 256.584 437.063 249.423C437.016 235.132 436.676 220.751 437.735 206.487C438.527 195.818 442.221 188.049 453.007 185.073C466.162 181.442 480.086 184.68 493.518 183.873C499.381 183.521 504.393 179.126 504.393 172.998C504.393 167.445 499.407 161.691 493.518 162.123C477.786 163.275 461.161 159.572 445.966 165.207C431.695 170.499 422.093 181.507 419.58 196.651C416.995 212.231 417.824 228.816 418.438 244.539C418.77 253.008 419.324 261.472 419.891 269.928C420.437 278.082 420.316 287.206 424.207 294.572C426.988 299.837 433.822 297.688 435.688 293.072V293.073Z" fill="#171717"/>
</g>
<g opacity="0.1">
<path d="M408.445 304.499C408.871 305.435 408.428 305.629 407.811 306.308C406.96 307.363 405.814 308.14 404.52 308.541C399.793 310.103 394.329 309.664 389.42 310.234C379.967 311.285 370.645 313.282 361.592 316.196C342.878 322.316 325.766 332.04 310.292 344.132C277.392 369.841 255.364 406.074 239.979 444.383C230.801 467.238 224.342 490.75 219.261 514.828C218.097 520.347 220.886 526.128 226.561 527.687C231.707 529.101 238.311 525.949 239.42 520.387C248.092 476.865 260.286 432.952 285.872 396.087C308.049 364.138 341.18 338.116 379.631 329.662C384.885 328.506 390.215 327.724 395.58 327.322C401.942 326.842 408.506 326.564 414.216 323.374C424.041 317.885 427.934 302.404 417.294 295.647C411.342 291.867 405.979 299.071 408.443 304.497L408.445 304.499Z" fill="#171717"/>
</g>
<defs>
<linearGradient id="paint0_linear_36_2582" x1="583.068" y1="152.608" x2="583.068" y2="571.557" gradientUnits="userSpaceOnUse">
<stop stop-color="#FFB800"/>
<stop offset="1" stop-color="#FF7F0A"/>
</linearGradient>
<linearGradient id="paint1_linear_36_2582" x1="667.356" y1="122.734" x2="667.356" y2="169.303" gradientUnits="userSpaceOnUse">
<stop stop-color="#FFB800"/>
<stop offset="1" stop-color="#FF7F0A"/>
</linearGradient>
<linearGradient id="paint2_linear_36_2582" x1="489.15" y1="294.51" x2="489.15" y2="314.448" gradientUnits="userSpaceOnUse">
<stop stop-color="#FFB800"/>
<stop offset="1" stop-color="#FF7F0A"/>
</linearGradient>
<linearGradient id="paint3_linear_36_2582" x1="470.307" y1="294.91" x2="470.307" y2="314.357" gradientUnits="userSpaceOnUse">
<stop stop-color="#FFB800"/>
<stop offset="1" stop-color="#FF7F0A"/>
</linearGradient>
<linearGradient id="paint4_linear_36_2582" x1="454.193" y1="295.364" x2="454.193" y2="314.265" gradientUnits="userSpaceOnUse">
<stop stop-color="#FFB800"/>
<stop offset="1" stop-color="#FF7F0A"/>
</linearGradient>
<linearGradient id="paint5_linear_36_2582" x1="436.687" y1="295.789" x2="436.687" y2="314.192" gradientUnits="userSpaceOnUse">
<stop stop-color="#FFB800"/>
<stop offset="1" stop-color="#FF7F0A"/>
</linearGradient>
<linearGradient id="paint6_linear_36_2582" x1="417.031" y1="296.356" x2="417.031" y2="314.1" gradientUnits="userSpaceOnUse">
<stop stop-color="#FFB800"/>
<stop offset="1" stop-color="#FF7F0A"/>
</linearGradient>
<linearGradient id="paint7_linear_36_2582" x1="353.731" y1="312.519" x2="353.731" y2="576.484" gradientUnits="userSpaceOnUse">
<stop stop-color="#FFB800"/>
<stop offset="1" stop-color="#FF7F0A"/>
</linearGradient>
<linearGradient id="paint8_linear_36_2582" x1="359.061" y1="49.1372" x2="359.061" y2="106.243" gradientUnits="userSpaceOnUse">
<stop stop-color="#FFB800"/>
<stop offset="1" stop-color="#FF7F0A"/>
</linearGradient>
<linearGradient id="paint9_linear_36_2582" x1="755.815" y1="304.519" x2="755.815" y2="374.16" gradientUnits="userSpaceOnUse">
<stop stop-color="#FFB800"/>
<stop offset="1" stop-color="#FF7F0A"/>
</linearGradient>
<linearGradient id="paint10_linear_36_2582" x1="203.983" y1="131.4" x2="203.983" y2="414.877" gradientUnits="userSpaceOnUse">
<stop stop-color="#FFB800"/>
<stop offset="1" stop-color="#FF7F0A"/>
</linearGradient>
<linearGradient id="paint11_linear_36_2582" x1="677.647" y1="579.06" x2="677.647" y2="806.008" gradientUnits="userSpaceOnUse">
<stop stop-color="#FFB800"/>
<stop offset="1" stop-color="#FF7F0A"/>
</linearGradient>
</defs>
</svg>
